PathFileType	4	(X/Y/Z)	D:\TRACE\spotREDO_2-26-24\spot_Both_Motion_3_5-platform.trc
DataRate	CameraRate	NumFrames	NumMarkers	Units	OrigDataRate	OrigDataStartFrame	OrigNumFrames
100.00	100.00	      37	5	mm	100.00	1751	      7000
Frame#	Time	Left_Front			Right_Front			Left_Aft			Right_Aft			Post			
		X1	Y1	Z1	X2	Y2	Z2	X3	Y3	Z3	X4	Y4	Z4	X5	Y5	Z5	

1751	17.500	-720.79810	-3.82706	-575.57874	694.30560	4.75389	-490.84949	-792.27515	4.42815	642.86383	777.36414	11.41818	648.15808	-26.08273	621.66498	-981.70032	
1752	17.510	-720.73419	-3.99933	-575.63123	694.44202	4.53199	-490.81845	-792.48871	4.22011	642.73749	777.36914	11.19987	648.00165	-25.87821	621.49567	-982.05548	
1753	17.520	-720.80896	-4.14926	-575.72034	694.35553	4.46678	-490.79831	-792.36395	4.28201	642.71246	777.33789	11.41398	648.15265	-25.93547	621.35095	-982.60468	
1754	17.530	-720.71313	-4.12779	-575.70612	694.31989	4.51702	-490.90771	-792.32214	4.35195	642.67877	777.32263	11.30153	648.08081	-26.14329	621.17206	-983.14685	
1755	17.540	-720.71021	-4.15890	-575.74084	694.26410	4.51243	-490.95859	-792.35223	4.47237	642.73792	777.34778	11.42017	648.12799	-26.26172	621.14209	-983.40283	
1756	17.550	-720.76489	-4.22455	-575.75739	694.40948	4.40517	-490.88840	-792.24921	4.54759	642.74023	777.27966	11.48596	648.00854	-26.18590	621.15424	-983.55829	
1757	17.560	-720.65930	-4.25755	-575.77942	694.48083	4.39776	-490.84445	-792.19049	4.61775	642.75836	777.28815	11.53325	647.99463	-26.07307	621.00098	-983.76465	
1758	17.570	-720.70874	-4.41524	-575.79462	694.52972	4.35205	-490.89545	-792.11810	4.65498	642.62817	777.28900	11.50679	647.96844	-26.03713	620.90039	-983.62524	
1759	17.580	-720.73169	-4.50903	-575.86835	694.58368	4.19955	-490.93686	-792.11725	4.65278	642.60614	777.35699	11.52620	648.02460	-26.11446	620.76099	-983.57434	
1760	17.590	-720.76215	-4.64098	-575.85394	694.52271	4.17534	-490.98608	-792.11029	4.68353	642.59521	777.31140	11.59237	647.97266	-26.21141	620.60315	-983.38647	
1761	17.600	-720.75775	-4.71617	-575.84479	694.43988	4.15998	-491.04486	-792.11371	4.72612	642.56616	777.30481	11.72009	647.89478	-26.23241	620.50348	-983.11041	
1762	17.610	-720.71088	-4.78328	-575.91876	694.46564	4.07141	-491.00546	-791.96436	4.98510	642.60431	777.37268	11.87254	647.91638	-26.10769	620.43231	-982.96906	
1763	17.620	-720.69299	-4.86765	-575.91669	694.43347	4.06267	-491.08911	-791.99042	5.06394	642.58038	777.29156	12.03404	647.86060	-26.02775	620.37378	-982.84766	
1764	17.630	-720.66895	-5.01264	-575.95789	694.41144	3.97671	-491.04575	-791.95532	5.06913	642.54553	777.28894	12.03904	647.82623	-26.04861	620.12286	-983.18298	
1765	17.640	-720.61041	-5.13206	-575.96838	694.39130	3.84182	-491.12607	-791.90662	5.04983	642.49353	777.24854	12.00735	647.77106	-26.19359	620.05664	-983.34222	
1766	17.650	-720.59131	-5.24615	-576.00452	694.32715	3.74395	-491.23291	-791.93231	5.10969	642.49652	777.26526	12.14442	647.77319	-26.18316	620.03094	-983.49426	
1767	17.660	-720.51996	-5.33065	-576.02808	694.39026	3.66558	-491.10330	-791.91522	5.22612	642.51141	777.25836	12.24944	647.77295	-26.05222	619.66437	-984.14972	
1768	17.670	-720.50281	-5.33470	-576.02771	694.44763	3.70464	-491.07886	-791.96674	5.41199	642.49713	777.28571	12.43519	647.77789	-25.99306	619.48083	-984.54846	
1769	17.680	-720.51294	-5.37778	-576.06561	694.39807	3.58640	-491.16852	-792.04193	5.49752	642.38861	777.18628	12.40711	647.68896	-25.81853	619.19019	-985.04688	
1770	17.690	-720.51843	-5.43301	-576.13544	694.33154	3.41077	-491.23987	-792.08020	5.59775	642.35278	777.16241	12.44184	647.67603	-25.88455	619.02051	-985.24786	
1771	17.700	-720.41357	-5.67141	-576.14496	694.27777	3.22155	-491.32626	-792.09503	5.72570	642.29126	777.02783	12.55755	647.66888	-25.96968	618.87482	-985.35150	
1772	17.710	-720.35162	-5.75173	-576.18408	694.46185	2.92235	-491.25937	-792.06616	5.88971	642.24084	777.02911	12.72338	647.64246	-25.82482	618.63446	-985.29681	
1773	17.720	-720.34460	-5.77880	-576.17773	694.53290	2.91594	-491.17929	-792.09613	6.19176	642.12689	777.04852	13.05358	647.63165	-25.83003	618.42657	-985.13318	
1774	17.730	-720.33099	-5.87151	-576.18707	694.57721	2.83112	-491.19531	-792.02960	6.31124	642.10297	777.11285	13.20857	647.55420	-25.91595	618.26270	-985.03827	
1775	17.740	-720.33319	-6.03227	-576.25903	694.60889	2.73252	-491.27896	-792.15356	6.40663	641.96179	777.04462	13.29519	647.52271	-26.03844	618.15631	-985.02368	
1776	17.750	-720.40039	-6.15128	-576.29675	694.51508	2.60874	-491.36191	-792.23657	6.47667	641.92981	776.96149	13.34765	647.52118	-26.03494	617.98529	-985.04596	
1777	17.760	-720.39087	-6.27153	-576.33801	694.45026	2.54926	-491.42511	-792.29504	6.50280	641.90778	776.99866	13.48626	647.48376	-25.99057	617.79962	-985.17139	
1778	17.770	-720.41858	-6.33819	-576.37646	694.37640	2.49968	-491.40933	-792.26257	6.69266	641.96954	777.17926	13.73044	647.37024	-26.00741	617.58124	-985.51532	
1779	17.780	-720.50128	-6.47571	-576.38959	694.31085	2.47007	-491.47083	-792.31439	6.84178	641.95752	777.21191	13.83235	647.30365	-26.10286	617.27618	-985.79291	
1780	17.790	-720.71704	-6.59574	-576.51190	694.11993	2.34082	-491.56979	-792.45898	6.94714	641.92322	777.20349	13.90037	647.32086	-25.98284	617.07898	-985.81787	
1781	17.800	-720.90723	-6.76535	-576.48145	693.96271	2.24269	-491.62442	-792.54700	7.03796	641.92993	777.18756	13.98773	647.31561	-25.97071	616.78156	-986.21613	
1782	17.810	-720.99756	-6.90126	-576.47620	693.81024	2.28522	-491.72345	-792.64020	7.06852	641.92932	777.07446	14.07204	647.23419	-26.33707	616.53601	-986.59601	
1783	17.820	-721.06482	-7.00685	-576.53448	693.71600	2.22061	-491.78928	-792.71735	7.14205	641.91241	777.08374	14.18141	647.27283	-26.47087	616.27820	-987.13739	
1784	17.830	-721.18652	-7.07912	-576.48956	693.63928	2.18360	-491.76752	-792.75696	7.21657	641.87665	776.90851	14.48764	647.23639	-26.42865	616.13165	-987.32587	
1785	17.840	-721.21582	-7.14409	-576.47949	693.55060	2.06054	-491.71332	-792.87122	7.33723	641.79895	776.79523	14.71346	647.26324	-26.43978	616.02985	-987.38947	
1786	17.850	-721.24872	-7.24488	-576.44092	693.51495	2.00574	-491.67471	-792.90015	7.44182	641.81232	776.72778	14.73099	647.19879	-26.56544	615.92151	-987.28467	
1787	17.860	-721.19684	-7.47238	-576.41510	693.44299	1.85923	-491.77670	-792.92615	7.44652	641.77399	776.68512	14.75560	647.16327	-26.76413	615.79700	-987.11072	
